# File created by Blade
# Date/Time:  Wed Sep 24 20:26:02 2014
# Frame Rate: 120.000 fps
#------------------------------------------------------
:FULLY-SPECIFIED
:DEGREES
370
root -8.868421 32.584528 1.053555 99.367278 -82.501478 -77.088873
Spine -17.700976 9.377083 1.197518
Head -5.468104 -3.024415 12.103792
LeftShoulder -11.153347 22.078955 9.686853
LeftArm 21.722993 38.245860 -68.830826
LeftForeArm 2.642957 -0.000000 21.148507
LeftHand -25.993221 -0.000000 -3.996988
LeftHandThumb1 -26.253704 0.000000 33.147579
RightShoulder -19.421271 9.103053 -25.212231
RightArm -19.057368 -34.749425 102.392321
RightForeArm -22.892841 -0.000000 19.996101
RightHand -3.243685 -0.000000 13.521112
RightHandThumb1 -24.326973 -0.000000 -32.862282
LeftUpLeg -15.035100 2.007237 -1.411996
LeftLeg -4.593547 -0.000000 0.000000
LeftFoot -12.386268 12.995190 -7.983330
LeftToeBase 5.571020 -0.000000 -0.000000
RightUpLeg -0.886307 -12.445115 -2.041673
RightLeg 7.892816 -0.000000 -0.000000
RightFoot -10.819436 -3.572872 1.733014
RightToeBase -3.407473 -0.000000 0.000000
371
root -8.883129 32.583857 1.061545 99.819872 -82.505987 -77.403319
Spine -17.851927 9.445392 1.190793
Head -5.435952 -3.043376 12.090949
LeftShoulder -11.152727 22.100690 9.685631
LeftArm 21.657466 38.219280 -68.879390
LeftForeArm 2.621608 -0.000000 21.119033
LeftHand -25.980285 -0.000000 -4.062868
LeftHandThumb1 -26.253704 0.000000 33.147579
RightShoulder -19.402884 9.110191 -25.228993
RightArm -19.119961 -34.766416 102.421091
RightForeArm -22.979974 -0.000000 19.980521
RightHand -3.311606 -0.000000 13.612349
RightHandThumb1 -24.326973 -0.000000 -32.862282
LeftUpLeg -15.128448 1.996428 -1.419810
LeftLeg -4.644134 -0.000000 0.000000
LeftFoot -12.318487 12.967251 -8.222291
LeftToeBase 5.213642 -0.000000 -0.000000
RightUpLeg -0.568665 -12.618802 -2.128395
RightLeg 8.065839 -0.000000 -0.000000
RightFoot -10.727247 -3.643781 1.495308
RightToeBase -3.147031 -0.000000 0.000000
372
root -8.901244 32.583027 1.070879 100.340195 -82.497876 -77.812122
Spine -17.977001 9.531665 1.210010
Head -5.375732 -3.039536 12.059630
LeftShoulder -11.153607 22.139600 9.650739
LeftArm 21.610906 38.190293 -68.894079
LeftForeArm 2.600147 -0.000000 21.104034
LeftHand -25.956011 0.000000 -4.141541
LeftHandThumb1 -26.253704 0.000000 33.147579
RightShoulder -19.431758 9.113050 -25.253564
RightArm -19.180437 -34.884786 102.452054
RightForeArm -22.957824 -0.000000 19.945169
RightHand -3.352755 -0.000000 13.633756
RightHandThumb1 -24.326973 -0.000000 -32.862282
LeftUpLeg -15.177230 1.980698 -1.431807
LeftLeg -4.694295 -0.000000 0.000000
LeftFoot -12.362982 13.130280 -7.959397
LeftToeBase 5.628560 -0.000000 -0.000000
RightUpLeg -0.195259 -12.731819 -2.216564
RightLeg 8.192836 -0.000000 -0.000000
RightFoot -10.484211 -3.545462 1.532086
RightToeBase -3.643743 -0.000000 0.000000
373
root -8.916962 32.581481 1.078918 100.730784 -82.494359 -78.079599
Spine -18.101889 9.586349 1.231269
Head -5.337854 -3.001053 12.014858
LeftShoulder -11.194486 22.175724 9.601301
LeftArm 21.603428 38.190876 -68.865422
LeftForeArm 2.580725 -0.000000 21.095774
LeftHand -25.926913 0.000000 -4.222985
LeftHandThumb1 -26.253704 0.000000 33.147579
RightShoulder -19.447721 9.085219 -25.281027
RightArm -19.198874 -34.958466 102.469978
RightForeArm -22.974839 -0.000000 19.895330
RightHand -3.246190 -0.000000 13.691692
RightHandThumb1 -24.326973 -0.000000 -32.862282
LeftUpLeg -15.257200 2.022280 -1.452806
LeftLeg -4.743072 -0.000000 0.000000
LeftFoot -12.298823 13.045247 -8.178256
LeftToeBase 5.233935 -0.000000 -0.000000
RightUpLeg 0.174848 -12.827690 -2.298578
RightLeg 8.287951 -0.000000 -0.000000
RightFoot -10.270577 -3.633207 1.507500
RightToeBase -4.056352 -0.000000 0.000000
374
root -8.928392 32.580762 1.087242 101.080742 -82.488863 -78.292642
Spine -18.230443 9.621158 1.251635
Head -5.316283 -2.928811 12.010602
LeftShoulder -11.226330 22.165196 9.564265
LeftArm 21.528012 38.185605 -68.894965
LeftForeArm 2.605222 -0.000000 21.103122
LeftHand -25.905957 -0.000000 -4.250847
LeftHandThumb1 -26.253704 0.000000 33.147579
RightShoulder -19.430094 9.062830 -25.299398
RightArm -19.198555 -34.965953 102.465681
RightForeArm -22.997737 0.000000 19.847946
RightHand -3.203098 -0.000000 13.719303
RightHandThumb1 -24.326973 -0.000000 -32.862282
LeftUpLeg -15.363792 1.988377 -1.467455
LeftLeg -4.746378 -0.000000 0.000000
LeftFoot -12.352375 13.217179 -7.901858
LeftToeBase 5.638021 -0.000000 -0.000000
RightUpLeg 0.514447 -12.879912 -2.378339
RightLeg 8.419868 -0.000000 -0.000000
RightFoot -10.026758 -3.710966 1.494600
RightToeBase -4.139660 -0.000000 0.000000
